<?xml version="1.0" encoding="UTF-8"?>
<svg id="Layer_1" data-name="Layer 1" xmlns="http://www.w3.org/2000/svg" viewBox="0 0 1366 768">
  <defs>
    <style>
      .cls-1 {
        fill: #713336;
      }
    </style>
  </defs>
  <g>
    <polygon class="cls-1" points="361.68 336.67 346.37 351.98 324.63 373.72 298.72 347.34 283.41 362.65 259.25 386.81 249.98 377.54 271.49 356.03 271.5 356.02 325.89 301.62 309.6 285.62 216.79 378.42 195.51 399.7 185.52 389.71 206.8 368.44 208.54 366.69 262.93 312.29 247.63 296.99 154.9 389.71 195.66 430.48 195.73 430.41 232.12 393.75 232.34 393.52 258.62 419.81 258.69 419.74 296.79 381.34 306.91 391.44 307.57 392.1 232.42 466.95 247.93 482.38 325.25 405.06 325.53 404.77 325.62 404.69 339.8 389.16 361.68 367.3 373.27 378.71 373.17 378.8 295.38 456.28 310.89 471.71 349.05 433.55 349.39 433.21 349.41 433.2 388.21 394.39 388.48 394.1 388.58 394.01 403.43 379.17 361.68 336.67"/>
    <polygon class="cls-1" points="216.79 378.42 232.12 393.75 195.73 430.41 195.66 430.48 154.9 389.71 247.63 296.99 262.93 312.29 208.54 366.69 206.8 368.44 185.52 389.71 195.51 399.7 216.79 378.42"/>
    <polygon class="cls-1" points="339.8 389.16 324.63 373.72 298.72 347.34 283.41 362.65 259.25 386.81 249.98 377.54 271.49 356.03 271.5 356.02 325.89 301.62 309.6 285.62 216.79 378.42 232.12 393.75 232.34 393.52 258.62 419.81 258.69 419.74 296.79 381.34 306.91 391.44 307.57 392.1 232.42 466.95 247.93 482.38 325.25 405.06 325.53 404.77 325.62 404.69 339.8 389.16"/>
    <polygon class="cls-1" points="322.9 353.69 307.56 338.07 334.8 310.83 350.43 326.16 322.9 353.69"/>
    <polygon class="cls-1" points="221 455.6 205.65 439.97 232.89 412.73 233.08 412.91 233.22 412.76 248.53 428.06 221 455.6"/>
    <polygon class="cls-1" points="403.43 379.17 388.58 394.01 388.48 394.1 388.21 394.39 349.41 433.2 349.39 433.21 349.05 433.55 310.89 471.71 295.38 456.28 373.17 378.8 373.27 378.71 361.68 367.29 339.8 389.16 324.63 373.72 346.37 351.98 361.68 336.67 403.43 379.17"/>
  </g>
  <g>
    <path d="m486.4,447.65c-23.39,0-41.46-12.26-41.79-33.56h24.2c.64,9.04,6.61,15,17.1,15s16.94-5.65,16.94-13.71c0-24.36-58.08-9.68-57.92-50.5,0-20.33,16.46-32.59,39.69-32.59s38.88,11.78,40.34,32.11h-24.85c-.48-7.42-6.45-13.23-16.13-13.39-8.87-.32-15.49,4.03-15.49,13.23,0,22.59,57.76,10,57.76,49.69,0,17.75-14.2,33.72-39.85,33.72Z"/>
    <path d="m545.77,327.13h22.59v119.39h-22.59v-119.39Z"/>
    <path d="m629.66,447.97c-25.97,0-44.85-18.07-44.85-46.14s18.39-46.14,44.85-46.14,44.05,17.59,44.05,44.21c0,2.9-.16,5.81-.64,8.71h-65.34c1.13,13.23,10.16,20.65,21.46,20.65,9.68,0,15-4.84,17.91-10.81h24.36c-4.84,16.46-19.68,29.53-41.79,29.53Zm-21.78-54.53h42.43c-.32-11.78-9.68-19.2-21.3-19.2-10.81,0-19.36,6.94-21.14,19.2Z"/>
    <path d="m729.2,447.97c-25.97,0-44.85-18.07-44.85-46.14s18.39-46.14,44.85-46.14,44.05,17.59,44.05,44.21c0,2.9-.16,5.81-.64,8.71h-65.34c1.13,13.23,10.16,20.65,21.46,20.65,9.68,0,15-4.84,17.91-10.81h24.36c-4.84,16.46-19.68,29.53-41.79,29.53Zm-21.78-54.53h42.43c-.32-11.78-9.68-19.2-21.3-19.2-10.81,0-19.36,6.94-21.14,19.2Z"/>
    <path d="m789.7,327.13h22.59v67.92l30.01-37.91h29.36l-39.37,44.85,39.69,44.53h-29.36l-30.33-38.08v38.08h-22.59v-119.39Z"/>
    <path d="m961.2,447.65c-23.39,0-41.46-12.26-41.79-33.56h24.2c.64,9.04,6.61,15,17.1,15s16.94-5.65,16.94-13.71c0-24.36-58.08-9.68-57.92-50.5,0-20.33,16.46-32.59,39.69-32.59s38.88,11.78,40.34,32.11h-24.85c-.48-7.42-6.45-13.23-16.13-13.39-8.87-.32-15.49,4.03-15.49,13.23,0,22.59,57.76,10,57.76,49.69,0,17.75-14.2,33.72-39.85,33.72Z"/>
    <path d="m1018.14,333.26c0-7.42,5.81-13.23,13.88-13.23s13.88,5.81,13.88,13.23-5.97,13.23-13.88,13.23-13.88-5.81-13.88-13.23Zm2.42,23.88h22.59v89.38h-22.59v-89.38Z"/>
    <path d="m1068.96,375.69h-10.65v-18.55h10.65v-22.1h22.75v22.1h20.01v18.55h-20.01v43.24c0,5.97,2.42,8.55,9.52,8.55h10.49v19.04h-14.2c-17.1,0-28.56-7.26-28.56-27.75v-43.08Z"/>
    <path d="m1167.05,447.97c-25.97,0-44.85-18.07-44.85-46.14s18.39-46.14,44.85-46.14,44.05,17.59,44.05,44.21c0,2.9-.16,5.81-.64,8.71h-65.34c1.13,13.23,10.16,20.65,21.46,20.65,9.68,0,15-4.84,17.91-10.81h24.36c-4.84,16.46-19.68,29.53-41.79,29.53Zm-21.78-54.53h42.43c-.32-11.78-9.68-19.2-21.3-19.2-10.81,0-19.36,6.94-21.14,19.2Z"/>
  </g>
</svg>